<?xml version="1.0" encoding="UTF-8" standalone="no"?>
<!DOCTYPE svg PUBLIC "-//W3C//DTD SVG 1.1//EN"
 "http://www.w3.org/Graphics/SVG/1.1/DTD/svg11.dtd">
<!-- Generated by graphviz version 2.40.1 (20161225.0304)
 -->
<!-- Title: G Pages: 1 -->
<svg width="218pt" height="266pt"
 viewBox="0.00 0.00 218.00 266.00" xmlns="http://www.w3.org/2000/svg" xmlns:xlink="http://www.w3.org/1999/xlink">
<g id="graph0" class="graph" transform="scale(1 1) rotate(0) translate(4 262)">
<title>G</title>
<polygon fill="#ffffff" stroke="transparent" points="-4,4 -4,-262 214,-262 214,4 -4,4"/>
<!-- A0 -->
<g id="node1" class="node">
<title>A0</title>
<polygon fill="none" stroke="#000000" points="16,-226 16,-258 95,-258 95,-226 16,-226"/>
<text text-anchor="start" x="28.415" y="-239" font-family="Helvetica,sans-Serif" font-size="10.00" fill="#000000">+A:HotDrink</text>
<polygon fill="none" stroke="#000000" points="16,-182 16,-226 95,-226 95,-182 16,-182"/>
<text text-anchor="start" x="30.085" y="-207" font-family="Helvetica,sans-Serif" font-size="10.00" fill="#000000">+milk:string</text>
<text text-anchor="start" x="26.4655" y="-195" font-family="Helvetica,sans-Serif" font-size="10.00" fill="#000000">+sugar:string</text>
<polygon fill="none" stroke="#000000" points="16,-114 16,-182 95,-182 95,-114 16,-114"/>
<text text-anchor="start" x="25.6355" y="-163" font-family="Helvetica,sans-Serif" font-size="10.00" fill="#000000">+Name:string</text>
<text text-anchor="start" x="27.3055" y="-151" font-family="Helvetica,sans-Serif" font-size="10.00" fill="#000000">+Drink:string</text>
<text text-anchor="start" x="31.4745" y="-139" font-family="Helvetica,sans-Serif" font-size="10.00" fill="#000000">+AddMilk()</text>
<text text-anchor="start" x="27.0205" y="-127" font-family="Helvetica,sans-Serif" font-size="10.00" fill="#000000">+AddSugar()</text>
</g>
<!-- A2 -->
<g id="node3" class="node">
<title>A2</title>
<polygon fill="none" stroke="#000000" points="0,-32 0,-64 98,-64 98,-32 0,-32"/>
<text text-anchor="start" x="16.6265" y="-45" font-family="Helvetica,sans-Serif" font-size="10.00" fill="#000000">+:CupofCoffee</text>
<polygon fill="none" stroke="#000000" points="0,0 0,-32 98,-32 98,0 0,0"/>
<text text-anchor="start" x="9.682" y="-13" font-family="Helvetica,sans-Serif" font-size="10.00" fill="#000000">+BeanType:string</text>
</g>
<!-- A0&#45;&gt;A2 -->
<g id="edge1" class="edge">
<title>A0&#45;&gt;A2</title>
<path fill="none" stroke="#000000" stroke-dasharray="5,2" d="M51.796,-103.7649C51.2513,-89.7836 50.7156,-76.0335 50.2612,-64.37"/>
<polygon fill="#000000" stroke="#000000" points="52.1932,-113.9598 47.3072,-104.1427 51.9985,-108.9636 51.8038,-103.9674 51.8038,-103.9674 51.8038,-103.9674 51.9985,-108.9636 56.3004,-103.7922 52.1932,-113.9598 52.1932,-113.9598"/>
</g>
<!-- A3 -->
<g id="node4" class="node">
<title>A3</title>
<polygon fill="none" stroke="#000000" points="116,-32 116,-64 210,-64 210,-32 116,-32"/>
<text text-anchor="start" x="136.74" y="-45" font-family="Helvetica,sans-Serif" font-size="10.00" fill="#000000">+:CupofTea</text>
<polygon fill="none" stroke="#000000" points="116,0 116,-32 210,-32 210,0 116,0"/>
<text text-anchor="start" x="125.627" y="-13" font-family="Helvetica,sans-Serif" font-size="10.00" fill="#000000">+LeafType:string</text>
</g>
<!-- A0&#45;&gt;A3 -->
<g id="edge2" class="edge">
<title>A0&#45;&gt;A3</title>
<path fill="none" stroke="#000000" stroke-dasharray="5,2" d="M100.4496,-121.1922C114.2282,-101.545 128.7689,-80.8111 140.3597,-64.2834"/>
<polygon fill="#000000" stroke="#000000" points="94.602,-129.5305 96.6595,-118.7594 97.4729,-125.4369 100.3438,-121.3432 100.3438,-121.3432 100.3438,-121.3432 97.4729,-125.4369 104.0281,-123.927 94.602,-129.5305 94.602,-129.5305"/>
</g>
<!-- A1 -->
<g id="node2" class="node">
<title>A1</title>
<polygon fill="none" stroke="#000000" points="118,-214 118,-246 208,-246 208,-214 118,-214"/>
<text text-anchor="start" x="146.7435" y="-227" font-family="Helvetica,sans-Serif" font-size="10.00" fill="#000000">+I:ICup</text>
<polygon fill="none" stroke="#000000" points="118,-170 118,-214 208,-214 208,-170 118,-170"/>
<text text-anchor="start" x="135.6355" y="-195" font-family="Helvetica,sans-Serif" font-size="10.00" fill="#000000">+color:string</text>
<text text-anchor="start" x="127.5715" y="-183" font-family="Helvetica,sans-Serif" font-size="10.00" fill="#000000">+volume:double</text>
<polygon fill="none" stroke="#000000" points="118,-126 118,-170 208,-170 208,-126 118,-126"/>
<text text-anchor="start" x="145.6445" y="-151" font-family="Helvetica,sans-Serif" font-size="10.00" fill="#000000">+Refill()</text>
<text text-anchor="start" x="143.973" y="-139" font-family="Helvetica,sans-Serif" font-size="10.00" fill="#000000">+Wash()</text>
</g>
<!-- A1&#45;&gt;A3 -->
<g id="edge3" class="edge">
<title>A1&#45;&gt;A3</title>
<path fill="none" stroke="#000000" d="M163,-115.1823C163,-97.3915 163,-79.1577 163,-64.3128"/>
<polygon fill="none" stroke="#000000" points="159.5001,-115.5771 163,-125.5771 166.5001,-115.5772 159.5001,-115.5771"/>
</g>
</g>
</svg>
