<?xml version="1.0" encoding="UTF-8" standalone="no"?>
<!DOCTYPE svg PUBLIC "-//W3C//DTD SVG 1.1//EN"
 "http://www.w3.org/Graphics/SVG/1.1/DTD/svg11.dtd">
<!-- Generated by graphviz version 2.40.1 (20161225.0304)
 -->
<!-- Title: G Pages: 1 -->
<svg width="424pt" height="152pt"
 viewBox="0.00 0.00 423.50 152.00" xmlns="http://www.w3.org/2000/svg" xmlns:xlink="http://www.w3.org/1999/xlink">
<g id="graph0" class="graph" transform="scale(1 1) rotate(0) translate(4 148)">
<title>G</title>
<polygon fill="#ffffff" stroke="transparent" points="-4,4 -4,-148 419.5,-148 419.5,4 -4,4"/>
<!-- A0 -->
<g id="node1" class="node">
<title>A0</title>
<polygon fill="none" stroke="#000000" points=".5,-112 .5,-144 79.5,-144 79.5,-112 .5,-112"/>
<text text-anchor="start" x="12.915" y="-125" font-family="Helvetica,sans-Serif" font-size="10.00" fill="#000000">+A:HotDrink</text>
<polygon fill="none" stroke="#000000" points=".5,-68 .5,-112 79.5,-112 79.5,-68 .5,-68"/>
<text text-anchor="start" x="14.585" y="-93" font-family="Helvetica,sans-Serif" font-size="10.00" fill="#000000">+milk:string</text>
<text text-anchor="start" x="10.9655" y="-81" font-family="Helvetica,sans-Serif" font-size="10.00" fill="#000000">+sugar:string</text>
<polygon fill="none" stroke="#000000" points=".5,0 .5,-68 79.5,-68 79.5,0 .5,0"/>
<text text-anchor="start" x="10.1355" y="-49" font-family="Helvetica,sans-Serif" font-size="10.00" fill="#000000">+Name:string</text>
<text text-anchor="start" x="11.8055" y="-37" font-family="Helvetica,sans-Serif" font-size="10.00" fill="#000000">+Drink:string</text>
<text text-anchor="start" x="15.9745" y="-25" font-family="Helvetica,sans-Serif" font-size="10.00" fill="#000000">+AddMilk()</text>
<text text-anchor="start" x="11.5205" y="-13" font-family="Helvetica,sans-Serif" font-size="10.00" fill="#000000">+AddSugar()</text>
</g>
<!-- A1 -->
<g id="node2" class="node">
<title>A1</title>
<polygon fill="none" stroke="#000000" points="97.5,-100 97.5,-132 187.5,-132 187.5,-100 97.5,-100"/>
<text text-anchor="start" x="126.2435" y="-113" font-family="Helvetica,sans-Serif" font-size="10.00" fill="#000000">+I:ICup</text>
<polygon fill="none" stroke="#000000" points="97.5,-56 97.5,-100 187.5,-100 187.5,-56 97.5,-56"/>
<text text-anchor="start" x="115.1355" y="-81" font-family="Helvetica,sans-Serif" font-size="10.00" fill="#000000">+color:string</text>
<text text-anchor="start" x="107.0715" y="-69" font-family="Helvetica,sans-Serif" font-size="10.00" fill="#000000">+volume:double</text>
<polygon fill="none" stroke="#000000" points="97.5,-12 97.5,-56 187.5,-56 187.5,-12 97.5,-12"/>
<text text-anchor="start" x="125.1445" y="-37" font-family="Helvetica,sans-Serif" font-size="10.00" fill="#000000">+Refill()</text>
<text text-anchor="start" x="123.473" y="-25" font-family="Helvetica,sans-Serif" font-size="10.00" fill="#000000">+Wash()</text>
</g>
<!-- A2 -->
<g id="node3" class="node">
<title>A2</title>
<polygon fill="none" stroke="#000000" points="205.5,-72 205.5,-104 303.5,-104 303.5,-72 205.5,-72"/>
<text text-anchor="start" x="222.1265" y="-85" font-family="Helvetica,sans-Serif" font-size="10.00" fill="#000000">+:CupofCoffee</text>
<polygon fill="none" stroke="#000000" points="205.5,-40 205.5,-72 303.5,-72 303.5,-40 205.5,-40"/>
<text text-anchor="start" x="215.182" y="-53" font-family="Helvetica,sans-Serif" font-size="10.00" fill="#000000">+BeanType:string</text>
</g>
<!-- A3 -->
<g id="node4" class="node">
<title>A3</title>
<polygon fill="none" stroke="#000000" points="321.5,-72 321.5,-104 415.5,-104 415.5,-72 321.5,-72"/>
<text text-anchor="start" x="342.24" y="-85" font-family="Helvetica,sans-Serif" font-size="10.00" fill="#000000">+:CupofTea</text>
<polygon fill="none" stroke="#000000" points="321.5,-40 321.5,-72 415.5,-72 415.5,-40 321.5,-40"/>
<text text-anchor="start" x="331.127" y="-53" font-family="Helvetica,sans-Serif" font-size="10.00" fill="#000000">+LeafType:string</text>
</g>
</g>
</svg>
